<mxfile host="app.diagrams.net" modified="2024-01-15T21:53:51.931Z" agent="Mozilla/5.0 (Windows NT 10.0; Win64; x64) AppleWebKit/537.36 (KHTML, like Gecko) Chrome/120.0.0.0 Safari/537.36" version="22.1.18" etag="CStVRvdLChJRrBD6Qbjq" type="github">
  <diagram name="Page-1" id="RMzhaLmU8FOm3dmu39xd">
    <mxGraphModel>
      <root>
        <mxCell id="0" />
        <mxCell id="1" parent="0" />
      </root>
    </mxGraphModel>
  </diagram>
</mxfile>
